<svg width="390" height="958" viewBox="0 0 390 958" fill="none" xmlns="http://www.w3.org/2000/svg">
<g clip-path="url(#clip0_21033_231)">
<rect width="390" height="958" fill="#FEF4D9"/>
<circle cx="271.5" cy="740.5" r="261.5" fill="#FAE269"/>
<circle cx="271.5" cy="740.5" r="235.746" fill="#FFCE00"/>
<circle cx="271.47" cy="740.47" r="208.834" fill="#FFA441"/>
<circle cx="271.47" cy="740.47" r="179.845" fill="#FF7E1D"/>
<path d="M230.138 621.996C230.223 622.312 230.248 622.714 230.126 623.224C230 623.747 229.712 624.407 229.152 625.133C228.591 625.861 227.799 626.599 226.774 627.252C225.752 627.905 224.567 628.429 223.292 628.771C222.017 629.113 220.729 629.251 219.517 629.197C218.303 629.143 217.248 628.9 216.399 628.55C215.551 628.201 214.97 627.774 214.6 627.384C214.24 627.004 214.06 626.643 213.976 626.327" stroke="#413D45" stroke-width="13.6824" stroke-linecap="round" stroke-linejoin="round"/>
<path d="M266.997 612.12C267.081 612.436 267.106 612.838 266.984 613.348C266.859 613.871 266.57 614.531 266.01 615.257C265.449 615.985 264.657 616.723 263.633 617.376C262.61 618.029 261.425 618.553 260.15 618.895C258.876 619.236 257.587 619.375 256.376 619.321C255.162 619.267 254.107 619.024 253.257 618.674C252.409 618.325 251.829 617.898 251.459 617.508C251.098 617.127 250.919 616.767 250.834 616.451" stroke="#413D45" stroke-width="13.6824" stroke-linecap="round" stroke-linejoin="round"/>
<path d="M301.755 617.12C299.802 622.064 296.302 627.065 291.4 631.828C286.499 636.593 280.306 641.012 273.157 644.817C266.01 648.622 258.069 651.726 249.791 653.944C241.513 656.162 233.084 657.444 224.992 657.723C216.898 658.002 209.326 657.271 202.698 655.596C196.072 653.921 190.54 651.34 186.376 648.035" stroke="#413D45" stroke-width="13.6824" stroke-linecap="round" stroke-linejoin="round"/>
</g>
<defs>
<clipPath id="clip0_21033_231">
<rect width="390" height="958" fill="white"/>
</clipPath>
</defs>
</svg>
