<svg width="390" height="1098" viewBox="0 0 390 1098" fill="none" xmlns="http://www.w3.org/2000/svg">
<g clip-path="url(#clip0_21035_241)">
<rect width="390" height="1098" fill="#F3FFFB"/>
<circle cx="261.5" cy="640.5" r="221.5" fill="#FECDCD"/>
<circle cx="261.5" cy="640.5" r="199.686" fill="#FFBCBC"/>
<circle cx="261.474" cy="640.475" r="176.89" fill="#FD7A7A"/>
<circle cx="261.475" cy="640.475" r="152.335" fill="#FF4F4F"/>
<path d="M225.454 540.394C225.479 540.485 225.502 540.648 225.437 540.919C225.369 541.204 225.195 541.63 224.801 542.141C224.406 542.654 223.827 543.199 223.053 543.693C222.28 544.187 221.375 544.588 220.395 544.851C219.416 545.113 218.431 545.218 217.515 545.177C216.597 545.136 215.824 544.953 215.225 544.707C214.629 544.461 214.265 544.179 214.063 543.967C213.872 543.764 213.81 543.611 213.786 543.521" stroke="#413D45" stroke-width="13.6824" stroke-linecap="round" stroke-linejoin="round"/>
<path d="M256.675 532.029C256.699 532.119 256.722 532.283 256.657 532.554C256.589 532.838 256.415 533.265 256.021 533.776C255.626 534.288 255.048 534.834 254.273 535.328C253.5 535.821 252.595 536.223 251.616 536.485C250.636 536.748 249.652 536.853 248.736 536.812C247.818 536.771 247.044 536.588 246.446 536.342C245.849 536.096 245.485 535.814 245.284 535.601C245.092 535.399 245.03 535.246 245.006 535.155" stroke="#413D45" stroke-width="13.6824" stroke-linecap="round" stroke-linejoin="round"/>
<path d="M287.127 535.993C285.473 540.181 282.508 544.416 278.356 548.451C274.204 552.487 268.959 556.23 262.904 559.453C256.85 562.676 250.123 565.305 243.112 567.184C236.1 569.063 228.96 570.149 222.106 570.385C215.25 570.621 208.836 570.002 203.223 568.583C197.61 567.165 192.924 564.979 189.397 562.179" stroke="#413D45" stroke-width="13.6824" stroke-linecap="round" stroke-linejoin="round"/>
</g>
<defs>
<clipPath id="clip0_21035_241">
<rect width="390" height="1098" fill="white"/>
</clipPath>
</defs>
</svg>
