<svg width="154" height="35" viewBox="0 0 154 35" fill="none" xmlns="http://www.w3.org/2000/svg">
<path d="M0.0978776 31.7837C0.0489387 31.5373 0 31.2909 0 30.9952C0 30.1083 0.293633 28.7778 1.90861 27.9893C4.11086 26.9545 5.6769 24.6385 6.45992 21.879C7.24294 19.1688 7.09612 17.4933 7.09612 17.3948C7.09612 13.0584 5.4322 8.62348 1.7618 6.50457C0.244694 5.66686 0 4.33638 0 3.49867C0 2.90734 0.0978776 1.82325 1.27241 0.788434C1.81073 0.246385 2.54482 0 3.42571 0H15.0731C15.6115 0 15.7583 0.0492764 16.1498 0.0985557C21.2394 0.542049 25.3013 3.0059 28.0419 6.35673C30.7825 9.75685 31.957 13.7483 31.957 17.3948C31.957 17.7397 31.9081 18.5282 31.8102 19.8094C31.7613 21.0413 31.2229 22.7167 30.2442 24.7863C29.2654 26.856 27.7972 28.7285 25.8397 30.3546C21.2394 34.1982 16.7371 34.5925 11.7942 34.5925C11.0112 34.5925 8.76004 34.4939 3.42571 34.4939C1.61498 34.4939 0.440449 33.2127 0.0978776 31.7837ZM10.0324 28.6299H14.7795C21.9246 28.4821 25.3013 22.6674 25.3013 17.247C25.3013 17.1484 25.4971 15.6701 24.5673 12.9599C24.1268 11.6294 23.4417 10.3974 22.5608 9.36263C20.75 7.24372 18.0584 5.86396 14.4859 5.86396H10.424C14.8284 12.4178 15.0242 22.0268 10.0324 28.6299Z" fill="white"/>
<path d="M34.9369 26.8067C34.2518 25.2298 33.9092 23.5544 33.9092 21.8297C33.9092 14.7338 39.6351 8.82058 47.0737 8.82058C54.4635 8.82058 60.2872 14.586 60.2872 21.8297C60.2872 28.8763 54.5614 34.7896 47.0737 34.7896C41.4458 34.7896 36.8455 31.4387 34.9369 26.8067ZM40.7606 18.3803C38.5584 22.5689 40.7117 28.8763 47.0737 28.8763C56.6168 28.8763 56.6168 14.7338 47.0737 14.7338C43.9417 14.7338 41.7884 16.36 40.7606 18.3803Z" fill="white"/>
<path d="M62.0654 33.1634C60.5973 31.4387 61.1846 27.8908 64.3656 27.8908C73.3703 27.8908 73.3703 15.7686 64.3656 15.7686C63.3379 15.7686 62.6038 15.4237 62.1144 14.7831C61.5761 14.1425 61.3314 13.6497 61.3314 13.2555C61.3314 12.812 61.2824 12.6149 61.2824 12.6149C61.2824 11.0873 62.2612 9.51046 64.3656 9.51046C68.8679 9.51046 72.8809 10.5946 75.23 14.6845C77.579 10.5946 81.592 9.55974 86.0455 9.55974C88.0519 9.55974 89.1286 11.1366 89.1286 12.6642C89.1286 14.2411 88.0519 15.7686 86.0455 15.7686C77.0407 15.7686 77.0407 27.9401 86.0455 27.9401C87.0732 27.9401 87.8073 28.285 88.3456 28.9256C88.8839 29.5662 89.1286 30.1083 89.1286 30.5025C89.1286 30.8967 89.1775 31.0938 89.1775 31.1431C89.1775 32.6214 88.1498 34.149 86.0455 34.149C81.2005 34.149 77.5301 32.6707 75.181 28.4821C72.832 32.7692 69.1126 34.149 64.3656 34.149C63.3379 34.149 62.6038 33.804 62.0654 33.1634Z" fill="#FF4F4F"/>
<path d="M91.519 16.7049C91.519 16.5078 91.47 16.2614 91.47 16.0643C91.47 13.8468 92.7424 10.1018 97.1958 9.26408C97.881 9.06697 98.664 8.96842 99.447 8.96842C100.426 8.96842 102.481 9.01769 104.879 10.3482C106.494 11.2844 106.396 12.2207 106.396 12.6149C106.396 13.4526 105.76 14.4382 104.83 14.7831C104.39 14.9309 104.047 14.9802 103.803 14.9802C103.313 14.9802 102.824 14.8817 102.334 14.586C101.551 14.1918 100.377 13.8961 99.3492 13.8961C99.3492 13.8961 97.2448 13.7483 96.8043 15.473C96.7554 15.6208 96.7554 15.7686 96.7554 15.9165C96.7554 16.8035 97.9299 17.4933 100.279 18.331C102.481 19.1195 105.173 20.2036 106.739 22.6674C108.256 24.8849 107.962 26.3139 107.962 26.6096C107.962 28.7285 107.13 30.7489 105.369 32.4735C103.607 34.2475 101.405 34.9867 99.2023 34.9867C98.7619 34.9867 97.2448 35.2331 94.5042 33.6069C93.5744 33.0649 92.9382 32.5228 92.3509 31.7837C91.6168 31.1431 91.519 30.3546 91.519 29.8619C91.519 29.4677 91.6658 28.0386 92.9382 27.2995C93.2807 27.1024 93.6233 27.0531 93.9659 27.0531C94.5532 27.0531 95.3362 27.4473 96.3149 28.3836C97.1469 29.2213 98.4193 29.6155 99.447 29.6155C99.5449 29.6155 101.943 29.6648 102.579 27.6444C102.677 27.3487 102.677 27.0531 102.677 26.7574C102.677 25.5255 101.6 24.3921 99.0555 23.4559C96.7065 22.6674 93.9169 21.6819 92.3509 19.3166C91.9105 18.6267 91.6168 17.7397 91.519 16.7049Z" fill="white"/>
<path d="M110.233 21.8297C110.233 14.3889 116.35 8.82058 123.397 8.82058C124.719 8.82058 125.893 8.96842 127.214 9.36263C130.738 10.3974 133.185 12.6149 134.702 15.0788C136.219 17.5426 136.66 19.9079 136.66 21.4848C136.66 21.9775 136.66 23.4559 135.828 24.2936C135.436 24.7371 134.996 24.9834 134.506 24.9834C134.262 24.9834 134.017 24.9342 133.723 24.8356C132.108 24.3428 130.444 24.0965 128.732 24.0965C127.361 24.0965 125.942 24.2443 124.621 24.5892C124.376 24.6385 124.131 24.6878 123.887 24.6878C122.81 24.6878 121.733 23.7022 121.538 22.8645C121.489 22.421 121.44 22.1254 121.44 21.9283C121.44 21.0413 121.782 19.7108 123.544 19.3659C125.257 19.0702 126.97 18.8731 128.683 18.8731C129.074 18.8731 129.515 18.9224 129.955 18.9224C128.78 16.1629 126.138 14.7831 123.446 14.7831C120.755 14.7831 118.259 16.1136 116.937 18.7253C116.399 19.7601 116.154 20.7949 116.154 21.7804C116.154 22.2239 116.056 23.8008 117.427 25.7226C118.748 27.6937 120.95 28.9256 123.446 28.9256C124.621 28.9256 125.746 28.6299 126.823 28.0879C127.263 27.8415 127.753 27.743 128.193 27.743C129.563 27.743 130.738 28.827 130.983 29.7633C131.13 30.2068 131.227 30.5517 131.227 30.8474C131.227 31.488 131.13 32.5721 129.563 33.3605C127.557 34.3461 125.551 34.7896 123.446 34.7896C116.595 34.7896 110.233 29.4677 110.233 21.8297Z" fill="white"/>
<path d="M139.6 7.49011C139.6 5.5683 141.117 4.58276 142.634 4.58276C144.151 4.58276 145.57 5.51903 145.57 7.49011V12.4671H148.458C152.275 12.4671 152.373 18.3803 148.458 18.3803H145.57C145.57 20.5485 145.472 21.9283 145.472 22.2732C145.472 25.0327 146.158 28.2357 151.1 28.2357C154.967 28.2357 154.967 34.149 151.1 34.149C143.662 34.149 139.6 28.827 139.6 23.3573V7.49011Z" fill="white"/>
</svg>
