<svg width="32" height="32" viewBox="0 0 32 32" fill="none" xmlns="http://www.w3.org/2000/svg">
<path d="M24.0503 0H7.94969C3.5592 0 0 3.5592 0 7.94969V24.0503C0 28.4408 3.5592 32 7.94969 32H24.0503C28.4408 32 32 28.4408 32 24.0503V7.94969C32 3.5592 28.4408 0 24.0503 0Z" fill="#F3FFFB"/>
<path d="M6.5614 24.32C5.50877 23.13 5.92982 20.682 8.21052 20.682C14.6667 20.682 14.6667 12.318 8.21052 12.318C7.47368 12.318 6.94737 12.08 6.59649 11.638C6.21052 11.196 6.03509 10.856 6.03509 10.584C6.03509 10.278 6 10.142 6 10.142C6 9.088 6.70175 8 8.21052 8C11.4386 8 14.3158 8.748 16 11.57C17.6842 8.748 20.5614 8.034 23.7544 8.034C25.193 8.034 25.9649 9.122 25.9649 10.176C25.9649 11.264 25.193 12.318 23.7544 12.318C17.2982 12.318 17.2982 20.716 23.7544 20.716C24.4912 20.716 25.0175 20.954 25.4035 21.396C25.7895 21.838 25.9649 22.212 25.9649 22.484C25.9649 22.756 26 22.892 26 22.926C26 23.946 25.2632 25 23.7544 25C20.2807 25 17.6491 23.98 15.9649 21.09C14.2807 24.048 11.614 25 8.21052 25C7.47368 25 6.94737 24.762 6.5614 24.32Z" fill="#FF4F4F"/>
</svg>
